<svg width="1732" height="315" viewBox="0 0 1732 315" fill="none" xmlns="http://www.w3.org/2000/svg">
<rect width="100" height="35" rx="4" fill="#EC4D1C"/>
<rect y="120" width="100" height="35" rx="4" fill="#EC4D1C"/>
<rect y="80" width="100" height="35" rx="4" fill="#AB131C"/>
<rect y="200" width="100" height="35" rx="4" fill="#AB131C"/>
<rect y="280" width="100" height="35" rx="4" fill="#EC4D1C"/>
<rect x="106" width="100" height="35" rx="4" fill="#AB131C"/>
<rect x="106" y="120" width="100" height="35" rx="4" fill="#891322"/>
<rect x="53" y="40" width="100" height="35" rx="4" fill="#EC4D1C"/>
<rect x="53" y="160" width="100" height="35" rx="4" fill="#EC4D1C"/>
<rect x="212" width="100" height="35" rx="4" fill="#EC4D1C"/>
<rect x="212" y="120" width="100" height="35" rx="4" fill="#AB131C"/>
<rect x="159" y="40" width="100" height="35" rx="4" fill="#AB131C"/>
<rect x="159" y="160" width="100" height="35" rx="4" fill="#EC4D1C"/>
<path d="M47 71C47 73.2091 45.2091 75 43 75L0 75L3.0598e-06 40L43 40C45.2091 40 47 41.7909 47 44L47 71Z" fill="#891322"/>
<path d="M47 271C47 273.209 45.2091 275 43 275L0 275L3.0598e-06 240L43 240C45.2091 240 47 241.791 47 244L47 271Z" fill="#891322"/>
<path d="M47 191C47 193.209 45.2091 195 43 195L0 195L3.0598e-06 160L43 160C45.2091 160 47 161.791 47 164L47 191Z" fill="#891322"/>
<path d="M265 44C265 41.7909 266.791 40 269 40L312 40V75H269C266.791 75 265 73.2091 265 71V44Z" fill="#891322"/>
<path d="M265 164C265 161.791 266.791 160 269 160H312V195H269C266.791 195 265 193.209 265 191V164Z" fill="#891322"/>
<path d="M53 244C53 241.791 54.7909 240 57 240H100V275H57C54.7909 275 53 273.209 53 271L53 244Z" fill="#EC4D1C"/>
<path d="M354.054 207V105.57H423.438V124.68H375.222V145.26H419.028V164.37H375.222V187.89H423.438V207H354.054ZM450.264 207V105.57H499.656C516.12 105.57 524.352 113.802 524.352 130.266V147.024C524.352 159.274 519.795 166.918 510.681 169.956L527.292 202.59L524.793 207H506.565L488.631 171.72H471.432V207H450.264ZM471.432 152.61H498.774C501.714 152.61 503.184 151.14 503.184 148.2V129.09C503.184 126.15 501.714 124.68 498.774 124.68H471.432V152.61ZM552.935 207V105.57H602.327C618.791 105.57 627.023 113.802 627.023 130.266V147.024C627.023 159.274 622.466 166.918 613.352 169.956L629.963 202.59L627.464 207H609.236L591.302 171.72H574.103V207H552.935ZM574.103 152.61H601.445C604.385 152.61 605.855 151.14 605.855 148.2V129.09C605.855 126.15 604.385 124.68 601.445 124.68H574.103V152.61ZM655.605 207V105.57H676.773V207H655.605ZM708.175 207V105.57H746.689C774.325 105.57 788.143 119.388 788.143 147.024V165.546C788.143 193.182 774.325 207 746.689 207H708.175ZM729.343 187.89H747.865C760.605 187.89 766.975 181.52 766.975 168.78V143.79C766.975 131.05 760.605 124.68 747.865 124.68H729.343V187.89ZM816.731 207V105.57H886.115V124.68H837.899V145.26H881.705V164.37H837.899V187.89H886.115V207H816.731ZM908.531 199.356V187.89H954.101C957.041 187.89 958.511 186.42 958.511 183.48V172.896C958.511 170.054 957.286 168.437 954.836 168.045L926.171 162.165C914.411 159.813 908.531 151.924 908.531 138.498V130.266C908.531 113.802 916.763 105.57 933.227 105.57H966.89L976.739 113.214V124.68H934.109C931.169 124.68 929.699 126.15 929.699 129.09V138.645C929.699 141.389 930.924 143.006 933.374 143.496L962.039 149.229C973.799 151.581 979.679 159.47 979.679 172.896V182.304C979.679 198.768 971.447 207 954.983 207H918.38L908.531 199.356ZM1005.24 182.304V130.266C1005.24 113.802 1013.47 105.57 1029.94 105.57H1069.19L1079.04 113.214V124.68H1030.82C1027.88 124.68 1026.41 126.15 1026.41 129.09V183.48C1026.41 186.42 1027.88 187.89 1030.82 187.89H1079.04V199.356L1069.19 207H1029.94C1013.47 207 1005.24 198.768 1005.24 182.304ZM1104.91 182.304V105.57H1126.08V183.48C1126.08 186.42 1127.55 187.89 1130.49 187.89H1159.3C1162.24 187.89 1163.71 186.42 1163.71 183.48V105.57H1184.88V182.304C1184.88 198.768 1176.65 207 1160.18 207H1129.61C1113.14 207 1104.91 198.768 1104.91 182.304ZM1215.5 207V105.57H1284.88V124.68H1236.66V145.26H1280.47V164.37H1236.66V187.89H1284.88V207H1215.5ZM1311.71 207V105.57H1334.64L1374.92 172.161V105.57H1396.09V207H1373.15L1332.88 140.409V207H1311.71ZM1419.06 124.68V105.57H1501.97V124.68H1471.1V207H1449.93V124.68H1419.06ZM1523.47 182.304V130.266C1523.47 113.802 1531.71 105.57 1548.17 105.57H1581.69C1598.15 105.57 1606.38 113.802 1606.38 130.266V182.304C1606.38 198.768 1598.15 207 1581.69 207H1548.17C1531.71 207 1523.47 198.768 1523.47 182.304ZM1544.64 183.48C1544.64 186.42 1546.11 187.89 1549.05 187.89H1580.8C1583.74 187.89 1585.21 186.42 1585.21 183.48V129.09C1585.21 126.15 1583.74 124.68 1580.8 124.68H1549.05C1546.11 124.68 1544.64 126.15 1544.64 129.09V183.48ZM1631.96 199.356V187.89H1677.53C1680.47 187.89 1681.94 186.42 1681.94 183.48V172.896C1681.94 170.054 1680.72 168.437 1678.27 168.045L1649.6 162.165C1637.84 159.813 1631.96 151.924 1631.96 138.498V130.266C1631.96 113.802 1640.19 105.57 1656.66 105.57H1690.32L1700.17 113.214V124.68H1657.54C1654.6 124.68 1653.13 126.15 1653.13 129.09V138.645C1653.13 141.389 1654.35 143.006 1656.8 143.496L1685.47 149.229C1697.23 151.581 1703.11 159.47 1703.11 172.896V182.304C1703.11 198.768 1694.88 207 1678.41 207H1641.81L1631.96 199.356Z" fill="#AB131C"/>
</svg>
