<svg width="1732" height="315" viewBox="0 0 1732 315" fill="none" xmlns="http://www.w3.org/2000/svg">
<rect width="100" height="35" rx="4" fill="#EC4D1C"/>
<rect y="120" width="100" height="35" rx="4" fill="#EC4D1C"/>
<rect y="80" width="100" height="35" rx="4" fill="#AB131C"/>
<rect y="200" width="100" height="35" rx="4" fill="#AB131C"/>
<rect y="280" width="100" height="35" rx="4" fill="#EC4D1C"/>
<rect x="106" width="100" height="35" rx="4" fill="#AB131C"/>
<rect x="106" y="120" width="100" height="35" rx="4" fill="#891322"/>
<rect x="53" y="40" width="100" height="35" rx="4" fill="#EC4D1C"/>
<rect x="53" y="160" width="100" height="35" rx="4" fill="#EC4D1C"/>
<rect x="212" width="100" height="35" rx="4" fill="#EC4D1C"/>
<rect x="212" y="120" width="100" height="35" rx="4" fill="#AB131C"/>
<rect x="159" y="40" width="100" height="35" rx="4" fill="#AB131C"/>
<rect x="159" y="160" width="100" height="35" rx="4" fill="#EC4D1C"/>
<path d="M47 71C47 73.2091 45.2091 75 43 75L0 75L3.0598e-06 40L43 40C45.2091 40 47 41.7909 47 44L47 71Z" fill="#891322"/>
<path d="M47 271C47 273.209 45.2091 275 43 275L0 275L3.0598e-06 240L43 240C45.2091 240 47 241.791 47 244L47 271Z" fill="#891322"/>
<path d="M47 191C47 193.209 45.2091 195 43 195L0 195L3.0598e-06 160L43 160C45.2091 160 47 161.791 47 164L47 191Z" fill="#891322"/>
<path d="M265 44C265 41.7909 266.791 40 269 40L312 40V75H269C266.791 75 265 73.2091 265 71V44Z" fill="#891322"/>
<path d="M265 164C265 161.791 266.791 160 269 160H312V195H269C266.791 195 265 193.209 265 191V164Z" fill="#891322"/>
<path d="M53 244C53 241.791 54.7909 240 57 240H100V275H57C54.7909 275 53 273.209 53 271L53 244Z" fill="#EC4D1C"/>
<path d="M354.054 207V105.57H423.438V124.68H375.222V145.26H419.028V164.37H375.222V187.89H423.438V207H354.054ZM450.121 207V105.57H499.513C515.977 105.57 524.209 113.802 524.209 130.266V147.024C524.209 159.274 519.652 166.918 510.538 169.956L527.149 202.59L524.65 207H506.422L488.488 171.72H471.289V207H450.121ZM471.289 152.61H498.631C501.571 152.61 503.041 151.14 503.041 148.2V129.09C503.041 126.15 501.571 124.68 498.631 124.68H471.289V152.61ZM552.791 207V105.57H602.183C618.647 105.57 626.879 113.802 626.879 130.266V147.024C626.879 159.274 622.322 166.918 613.208 169.956L629.819 202.59L627.32 207H609.092L591.158 171.72H573.959V207H552.791ZM573.959 152.61H601.301C604.241 152.61 605.711 151.14 605.711 148.2V129.09C605.711 126.15 604.241 124.68 601.301 124.68H573.959V152.61ZM655.461 207V105.57H676.629V207H655.461ZM708.031 207V105.57H746.545C774.181 105.57 787.999 119.388 787.999 147.024V165.546C787.999 193.182 774.181 207 746.545 207H708.031ZM729.199 187.89H747.721C760.461 187.89 766.831 181.52 766.831 168.78V143.79C766.831 131.05 760.461 124.68 747.721 124.68H729.199V187.89ZM816.587 207V105.57H885.971V124.68H837.755V145.26H881.561V164.37H837.755V187.89H885.971V207H816.587ZM908.244 199.356V187.89H953.814C956.754 187.89 958.224 186.42 958.224 183.48V172.896C958.224 170.054 956.999 168.437 954.549 168.045L925.884 162.165C914.124 159.813 908.244 151.924 908.244 138.498V130.266C908.244 113.802 916.476 105.57 932.94 105.57H966.603L976.452 113.214V124.68H933.822C930.882 124.68 929.412 126.15 929.412 129.09V138.645C929.412 141.389 930.637 143.006 933.087 143.496L961.752 149.229C973.512 151.581 979.392 159.47 979.392 172.896V182.304C979.392 198.768 971.16 207 954.696 207H918.093L908.244 199.356ZM1004.95 182.304V130.266C1004.95 113.802 1013.19 105.57 1029.65 105.57H1068.9L1078.75 113.214V124.68H1030.53C1027.59 124.68 1026.12 126.15 1026.12 129.09V183.48C1026.12 186.42 1027.59 187.89 1030.53 187.89H1078.75V199.356L1068.9 207H1029.65C1013.19 207 1004.95 198.768 1004.95 182.304ZM1104.62 182.304V105.57H1125.79V183.48C1125.79 186.42 1127.26 187.89 1130.2 187.89H1159.01C1161.95 187.89 1163.42 186.42 1163.42 183.48V105.57H1184.59V182.304C1184.59 198.768 1176.36 207 1159.9 207H1129.32C1112.86 207 1104.62 198.768 1104.62 182.304ZM1215.21 207V105.57H1284.59V124.68H1236.38V145.26H1280.18V164.37H1236.38V187.89H1284.59V207H1215.21ZM1311.28 207V105.57H1334.21L1374.49 172.161V105.57H1395.65V207H1372.72L1332.44 140.409V207H1311.28ZM1418.63 124.68V105.57H1501.54V124.68H1470.67V207H1449.5V124.68H1418.63ZM1523.04 182.304V130.266C1523.04 113.802 1531.27 105.57 1547.74 105.57H1581.25C1597.72 105.57 1605.95 113.802 1605.95 130.266V182.304C1605.95 198.768 1597.72 207 1581.25 207H1547.74C1531.27 207 1523.04 198.768 1523.04 182.304ZM1544.21 183.48C1544.21 186.42 1545.68 187.89 1548.62 187.89H1580.37C1583.31 187.89 1584.78 186.42 1584.78 183.48V129.09C1584.78 126.15 1583.31 124.68 1580.37 124.68H1548.62C1545.68 124.68 1544.21 126.15 1544.21 129.09V183.48ZM1631.53 199.356V187.89H1677.1C1680.04 187.89 1681.51 186.42 1681.51 183.48V172.896C1681.51 170.054 1680.28 168.437 1677.83 168.045L1649.17 162.165C1637.41 159.813 1631.53 151.924 1631.53 138.498V130.266C1631.53 113.802 1639.76 105.57 1656.23 105.57H1689.89L1699.74 113.214V124.68H1657.11C1654.17 124.68 1652.7 126.15 1652.7 129.09V138.645C1652.7 141.389 1653.92 143.006 1656.37 143.496L1685.04 149.229C1696.8 151.581 1702.68 159.47 1702.68 172.896V182.304C1702.68 198.768 1694.45 207 1677.98 207H1641.38L1631.53 199.356Z" fill="#891322"/>
</svg>
